<svg width="21" height="20" viewBox="0 0 21 20" fill="none" xmlns="http://www.w3.org/2000/svg">
<path d="M10.5 15.8334C10.3345 15.8343 10.1725 15.786 10.0345 15.6945C9.8966 15.603 9.78904 15.4725 9.72557 15.3196C9.6621 15.1667 9.64559 14.9984 9.67815 14.8361C9.7107 14.6738 9.79085 14.5249 9.90838 14.4084L14.325 10L9.90838 5.59169C9.77186 5.43227 9.70052 5.22721 9.70862 5.01748C9.71672 4.80775 9.80366 4.6088 9.95208 4.46039C10.1005 4.31197 10.2994 4.22503 10.5092 4.21693C10.7189 4.20883 10.924 4.28017 11.0834 4.41669L16.0834 9.41669C16.2386 9.57282 16.3257 9.78403 16.3257 10.0042C16.3257 10.2243 16.2386 10.4356 16.0834 10.5917L11.0834 15.5917C10.9282 15.7456 10.7187 15.8324 10.5 15.8334Z" fill="white"/>
<path d="M5.50005 15.8333C5.33452 15.8343 5.17247 15.786 5.03453 15.6945C4.8966 15.603 4.78904 15.4725 4.72557 15.3196C4.6621 15.1667 4.64559 14.9984 4.67815 14.8361C4.7107 14.6738 4.79085 14.5249 4.90838 14.4083L9.32505 10L4.90838 5.59168C4.75146 5.43476 4.6633 5.22193 4.6633 5.00001C4.6633 4.77809 4.75146 4.56527 4.90838 4.40835C5.0653 4.25143 5.27813 4.16327 5.50005 4.16327C5.72196 4.16327 5.93479 4.25143 6.09171 4.40835L11.0917 9.40835C11.2469 9.56448 11.334 9.77569 11.334 9.99585C11.334 10.216 11.2469 10.4272 11.0917 10.5833L6.09171 15.5833C6.01453 15.6621 5.9225 15.7247 5.82093 15.7676C5.71937 15.8106 5.6103 15.8329 5.50005 15.8333Z" fill="white"/>
</svg>
